<?xml version="1.0" encoding="UTF-8"?>
<svg id="Capa_2" data-name="Capa 2" xmlns="http://www.w3.org/2000/svg" viewBox="0 0 5645.26 1109.88">
  <defs>
    <style>
      .cls-1 {
        fill: #fff;
      }

      .cls-2 {
        fill: #ca1517;
      }

      .cls-3 {
        fill: #d0d0d0;
      }
    </style>
  </defs>
  <g id="Capa_1-2" data-name="Capa 1">
    <g>
      <path class="cls-3" d="m130.77,211.99C58.67,219.89,0,290.73,0,369.87v370.27c0,79.14,58.67,149.98,130.77,157.88,937.46,95.87,2094.65,211.86,2691.83,211.86s1754.82-115.99,2691.83-211.86c72.19-7.94,130.82-78.79,130.82-157.88v-370.27c0-79.14-58.67-150.02-130.82-157.92C4577.12,116.08,3419.93,0,2822.61,0S1067.47,116.08,130.77,211.99"/>
      <path class="cls-2" d="m5510.93,244.54c-936.21-95.78-2091.98-211.73-2688.32-211.73S1069.79,148.81,134.02,244.59c-56.09,6.18-101.73,62.36-101.73,125.26v370.31c0,62.85,45.73,119.08,101.99,125.26,936.3,95.73,2092.02,211.64,2688.32,211.64s1752.46-115.95,2688.59-211.73c56.13-6.18,101.77-62.32,101.77-125.17v-370.31c0-62.9-45.73-119.08-102.04-125.31"/>
      <g>
        <polygon class="cls-1" points="1724.04 691.6 1724.04 370.41 1669.78 370.41 1669.78 739.49 2040.96 739.49 2060.13 691.6 1724.04 691.6"/>
        <polygon class="cls-1" points="4874.67 370.4 4739.54 508.24 4604.41 370.4 4526.7 370.4 4712.45 565.05 4712.45 739.48 4766.67 739.48 4766.67 565.05 4952.42 370.4 4874.67 370.4"/>
        <path class="cls-1" d="m2985.65,370.39h-314.83c-26.24,0-47.64,19.2-47.64,42.77v283.54c0,23.57,21.39,42.77,47.64,42.77h314.83c26.29,0,47.64-19.2,47.64-42.77v-283.54c0-23.57-21.35-42.77-47.64-42.77m-5.96,315.89h-302.91v-262.75h302.91v262.75Z"/>
        <path class="cls-1" d="m3884.81,579.45h49.95c26.24,0,47.59-19.2,47.59-42.77v-123.5c0-23.61-21.35-42.77-47.59-42.77h-355.26v369.08h54.27v-160.04h188.99l100.48,160.04h62.18l-100.61-160.04Zm-251.04-47.85v-113.34l275.06-.04c11.03,0,19.97,8.87,19.97,19.82v73.71c0,10.95-8.94,19.86-19.97,19.86h-275.06Z"/>
        <path class="cls-1" d="m1083.73,739.49c26.82,0,48.57-21.45,48.79-48.02h.04v-112.46c-.09-25.07-19.44-48.02-44.08-48.02h-189.26l-23.57,47.89h189.88c7.03.57,12.59,6.31,12.63,13.42l.13,85.63h-.13c-.04,7.5-6.18,13.55-13.7,13.55-.09,0-169.69.13-169.69.13-40.39,0-75.39-13.37-104.04-39.68-28.96-26.62-43.63-59.23-43.63-97.01s14.68-70.36,43.63-96.93c28.65-26.35,63.65-39.72,104.04-39.72h209.59l23.13-47.85h-232.72c-55.64,0-103.82,18.27-143.14,54.42-39.59,36.37-58.8,78.92-58.8,130.07s19.22,93.75,58.8,130.12c39.32,36.1,87.49,54.46,143.14,54.46h188.95Z"/>
      </g>
    </g>
  </g>
</svg>